<svg class="svg-logo" xmlns="http://www.w3.org/2000/svg" viewBox="0 0 297.74 68.77"><defs><style>.cls-1-logo{fill:#51555c;}.cls-2-logo{fill:#0c3d5b;}.cls-3-logo{fill:#49a2ac;}</style></defs><g data-name="Layer 2"><g data-name="Layer 1"><path class="cls-1-logo" d="M50.85,50.58c2.27,0,4.06,1.44,4.06,3.63A3.43,3.43,0,0,1,53.54,57a3.43,3.43,0,0,1,2,3.25,3.94,3.94,0,0,1-4.23,3.91H45.66V50.58Zm-.11,1.57H47.41v4.22h3.44a2,2,0,0,0,2.3-2.16C53.15,52.9,52.21,52.15,50.74,52.15Zm.2,5.72H47.41v4.7h3.71a2.35,2.35,0,0,0,2.62-2.34C53.74,58.66,52.78,57.87,50.94,57.87Z"/><path class="cls-1-logo" d="M59.92,64.14H58.26V55.08H59l.63,1.33A3.1,3.1,0,0,1,62.32,55a3.92,3.92,0,0,1,2.45.87l-.86,1.27a2.76,2.76,0,0,0-1.66-.57,2.45,2.45,0,0,0-2.33,2Z"/><path class="cls-1-logo" d="M70.07,55a4.29,4.29,0,0,1,3.21,1.48l.63-1.35h.73v9.06H73.21l-.1-1.37A3.93,3.93,0,0,1,70,64.32,4.69,4.69,0,0,1,70.07,55Zm0,7.81A3,3,0,0,0,73,59.53a2.91,2.91,0,1,0-2.89,3.23Z"/><path class="cls-1-logo" d="M79.44,64.14H77.78V55.08h.74l.68,1.27A3.61,3.61,0,0,1,82,55a3.75,3.75,0,0,1,3.88,4v5.22H84.26V59.07A2.24,2.24,0,0,0,82,56.52a2.88,2.88,0,0,0-2.51,1.64Z"/><path class="cls-1-logo" d="M92.8,55a3.67,3.67,0,0,1,2.84,1.24v-6H97.3V64.14h-1l-.4-1.38a3.89,3.89,0,0,1-3.23,1.56A4.69,4.69,0,0,1,92.8,55Zm0,7.81a2.82,2.82,0,0,0,2.84-3.12,2.85,2.85,0,0,0-2.84-3.12,3.14,3.14,0,0,0,0,6.24Z"/><path class="cls-1-logo" d="M101.26,50.82a1.19,1.19,0,1,1-1.18,1.2A1.19,1.19,0,0,1,101.26,50.82Zm.83,13.32h-1.66v-9h1.66Z"/><path class="cls-1-logo" d="M106.89,64.14h-1.66V55.08H106l.68,1.27a3.6,3.6,0,0,1,2.84-1.4,3.75,3.75,0,0,1,3.88,4v5.22H111.7V59.07c0-1.46-.73-2.55-2.3-2.55a2.88,2.88,0,0,0-2.51,1.64Z"/><path class="cls-1-logo" d="M116.24,66.61l1.35-.77a3.09,3.09,0,0,0,2.58,1.36,2.61,2.61,0,0,0,2.92-2.75V62.79a3.54,3.54,0,0,1-2.92,1.53,4.45,4.45,0,0,1-4.41-4.68,4.4,4.4,0,0,1,4.5-4.69,4.13,4.13,0,0,1,3.12,1.48l.63-1.35h.74v9.35c0,2.72-1.85,4.34-4.58,4.34A4.47,4.47,0,0,1,116.24,66.61Zm4-3.85a3.14,3.14,0,0,0,0-6.24,3.13,3.13,0,0,0,0,6.24Z"/><path class="cls-1-logo" d="M137.94,50.41a3,3,0,0,1,3.11,2.94c0,1.21-.49,1.84-1.75,2.93l2.7,3.93a5.81,5.81,0,0,0,.7-1.57l1.47.48A5.58,5.58,0,0,1,143,61.57l1.83,2.57h-1.9l-1.18-1.33a6.63,6.63,0,0,1-4.08,1.51c-3.06,0-4.43-1.86-4.43-3.69,0-1.66.76-2.54,2.92-4.15l-.63-.88a3.77,3.77,0,0,1-.72-2.24A3,3,0,0,1,137.94,50.41Zm2.86,11.11-2.9-4.32c-1.53,1.18-2.92,2-2.92,3.42,0,1.23,1,2.14,2.68,2.14A5,5,0,0,0,140.8,61.52ZM137.14,55l.39.61.94-.68a1.88,1.88,0,0,0,.83-1.52A1.31,1.31,0,0,0,137.94,52a1.28,1.28,0,0,0-1.37,1.38A2.8,2.8,0,0,0,137.14,55Z"/><path class="cls-1-logo" d="M160.89,60.52H155l-1.48,3.62h-1.88l5.63-13.56h1.31l5.64,13.56h-1.9Zm-5.13-1.66h4.42L158,53.42Z"/><path class="cls-1-logo" d="M170.31,55a3.65,3.65,0,0,1,2.84,1.24v-6h1.66V64.14h-1l-.41-1.38a3.87,3.87,0,0,1-3.22,1.56,4.69,4.69,0,0,1,.16-9.37Zm0,7.81a3.13,3.13,0,0,0,0-6.24,3.14,3.14,0,0,0,0,6.24Z"/><path class="cls-1-logo" d="M176.84,55.14h1.77l2.7,6.6,2.71-6.6h1.73l-3.85,9h-1.2Z"/><path class="cls-1-logo" d="M194,61.65l1.4.72a4.55,4.55,0,0,1-3.87,1.95,4.45,4.45,0,0,1-4.65-4.68c0-2.59,1.64-4.69,4.39-4.69a4.28,4.28,0,0,1,4.3,4.48,6.1,6.1,0,0,1,0,.78h-6.94a2.74,2.74,0,0,0,2.94,2.64A2.91,2.91,0,0,0,194,61.65Zm-5.35-2.81h5.2a2.54,2.54,0,0,0-2.56-2.41A2.57,2.57,0,0,0,188.63,58.84Z"/><path class="cls-1-logo" d="M200,64.14h-1.66V55.08h.74l.63,1.33A3.12,3.12,0,0,1,202.37,55a4,4,0,0,1,2.46.87L204,57.09a2.76,2.76,0,0,0-1.66-.57,2.45,2.45,0,0,0-2.33,2Z"/><path class="cls-1-logo" d="M205.93,55.14h1.66l.35-2.73,1.26,0v2.7h2.58v1.4H209.2v4.7c0,1,.55,1.5,1.2,1.5h1.36l.06,1.4a8.54,8.54,0,0,1-1.42.11,2.72,2.72,0,0,1-2.86-3v-4.7h-1.61Z"/><path class="cls-1-logo" d="M215.23,50.82a1.19,1.19,0,1,1-1.18,1.2A1.2,1.2,0,0,1,215.23,50.82Zm.83,13.32H214.4v-9h1.66Z"/><path class="cls-1-logo" d="M223.7,57a3,3,0,0,0-1.9-.63c-.89,0-1.39.5-1.39,1.18,0,.46.3.92,1.17,1.09l.92.18c2,.43,2.67,1.42,2.67,2.68,0,1.6-1.34,2.8-3.32,2.8A4.36,4.36,0,0,1,218.64,63l1-1a3,3,0,0,0,2.23.94c1.16,0,1.66-.65,1.66-1.37s-.4-1-1.34-1.25l-1-.21c-1.31-.24-2.42-1-2.42-2.49A2.74,2.74,0,0,1,221.8,55a4.46,4.46,0,0,1,2.82.94Z"/><path class="cls-1-logo" d="M228.59,50.82A1.19,1.19,0,1,1,227.4,52,1.19,1.19,0,0,1,228.59,50.82Zm.83,13.32h-1.67v-9h1.67Z"/><path class="cls-1-logo" d="M234.21,64.14h-1.66V55.08h.74l.68,1.27a3.63,3.63,0,0,1,2.84-1.4,3.75,3.75,0,0,1,3.88,4v5.22H239V59.07a2.24,2.24,0,0,0-2.31-2.55,2.88,2.88,0,0,0-2.51,1.64Z"/><path class="cls-1-logo" d="M243.56,66.61l1.35-.77a3.09,3.09,0,0,0,2.58,1.36,2.61,2.61,0,0,0,2.92-2.75V62.79a3.51,3.51,0,0,1-2.92,1.53,4.45,4.45,0,0,1-4.41-4.68A4.4,4.4,0,0,1,247.59,55a4.11,4.11,0,0,1,3.11,1.48l.63-1.35h.74v9.35c0,2.72-1.85,4.34-4.58,4.34A4.47,4.47,0,0,1,243.56,66.61Zm4-3.85a3.14,3.14,0,0,0,0-6.24,3.13,3.13,0,0,0,0,6.24Z"/><path class="cls-2-logo" d="M10.78,26.2h1.11a2.93,2.93,0,0,1,1.3.34,2.92,2.92,0,0,1,1,.83c1,1.51,2.1,3,3.16,4.43s2.14,2.9,3.22,4.32a1.81,1.81,0,0,0,.7.54,2.09,2.09,0,0,0,.87.23h9.47c.11,0,.14,0,.17-.13a.45.45,0,0,0-.07-.43q-1.68-2.23-3.81-4.92t-4.08-5.25a1.44,1.44,0,0,1-.26-1.3,2,2,0,0,1,.72-1A8.76,8.76,0,0,0,26.42,22,12.55,12.55,0,0,0,28,19.56a13.69,13.69,0,0,0,1.42-6,13.64,13.64,0,0,0-1-5.2,12.29,12.29,0,0,0-2.64-4,11.55,11.55,0,0,0-4.07-2.66,14,14,0,0,0-5.25-1H.71a.67.67,0,0,0-.5.21.67.67,0,0,0-.21.5V36.18a.64.64,0,0,0,.21.5.68.68,0,0,0,.51.21H8.34a.71.71,0,0,0,.51-.21.66.66,0,0,0,.2-.5V27.93a1.67,1.67,0,0,1,.51-1.22A1.69,1.69,0,0,1,10.78,26.2ZM9.05,10.74A1.74,1.74,0,0,1,10.78,9h5.37a3.92,3.92,0,0,1,2.05.51,4,4,0,0,1,1.33,1.22,4.7,4.7,0,0,1,.68,1.48,5.37,5.37,0,0,1,.19,1.32A4.13,4.13,0,0,1,20,15.44a4.22,4.22,0,0,1-1,1.35,4.11,4.11,0,0,1-1.38.81,4.38,4.38,0,0,1-1.43.26H10.78a1.69,1.69,0,0,1-1.22-.51,1.64,1.64,0,0,1-.51-1.22Z"/><path class="cls-2-logo" d="M62,36.09a1.8,1.8,0,0,0,.55.56,1.32,1.32,0,0,0,.76.24h8.7c.51,0,.61-.19.64-.25a.52.52,0,0,0,.06-.51L59.93,1.52A1.36,1.36,0,0,0,59.42,1a1.23,1.23,0,0,0-.7-.24H51a1.34,1.34,0,0,0-.76.24c-.17.13-.34.38-.11.84C51,3.63,61.51,34.76,62,36.09Z"/><path class="cls-2-logo" d="M80.44,36.89h8a.72.72,0,0,0,.71-.71V1.42a.67.67,0,0,0-.21-.5.67.67,0,0,0-.5-.21h-8a.64.64,0,0,0-.51.19.74.74,0,0,0-.19.52V36.18a.7.7,0,0,0,.19.51A.61.61,0,0,0,80.44,36.89Z"/><path class="cls-2-logo" d="M109.66,17.4l13.26,18.69a2.09,2.09,0,0,0,.69.55,1.67,1.67,0,0,0,.82.25H132a.72.72,0,0,0,.71-.71V1.37a.67.67,0,0,0-.21-.5.67.67,0,0,0-.5-.21h-7.53a.68.68,0,0,0-.51.21.67.67,0,0,0-.21.5V19.59c0,.88-.58,1-.76,1.06a1.14,1.14,0,0,1-1.12-.55L108.58,1.41a1.82,1.82,0,0,0-.68-.52,1.9,1.9,0,0,0-.84-.23H99.43a.67.67,0,0,0-.5.21.67.67,0,0,0-.21.5V36.18a.72.72,0,0,0,.72.71h7.62a.69.69,0,0,0,.51-.21.67.67,0,0,0,.21-.5V18a1,1,0,0,1,.72-1.08.69.69,0,0,1,.22,0A1.19,1.19,0,0,1,109.66,17.4Z"/><path class="cls-2-logo" d="M174.83,26.49a20.58,20.58,0,0,0,1.39-7.72,20.42,20.42,0,0,0-1.39-7.69,16.23,16.23,0,0,0-4.05-5.87c-3.27-3-7.56-4.55-12.73-4.55H144.16a.67.67,0,0,0-.5.21.67.67,0,0,0-.21.5V36.18a.72.72,0,0,0,.71.71h13.89a21,21,0,0,0,7.08-1.14,17,17,0,0,0,5.66-3.36A16.27,16.27,0,0,0,174.83,26.49Zm-8.6-2.75a7.81,7.81,0,0,1-2.16,3,7.14,7.14,0,0,1-2.95,1.44,13.29,13.29,0,0,1-3.07.38h-3.81a1.72,1.72,0,0,1-1.73-1.74v-16a1.71,1.71,0,0,1,1.73-1.73h3.81a13.63,13.63,0,0,1,3,.36,7.29,7.29,0,0,1,5.13,4.44,12.5,12.5,0,0,1,.83,4.91A12.52,12.52,0,0,1,166.23,23.74Z"/><path class="cls-2-logo" d="M196.21,26.2h1.12a3.23,3.23,0,0,1,2.33,1.17c1.05,1.51,2.11,3,3.17,4.43S205,34.7,206,36.12a1.81,1.81,0,0,0,.7.54,2.13,2.13,0,0,0,.88.23h9.46c.12,0,.14,0,.18-.13a.43.43,0,0,0-.08-.43q-1.67-2.23-3.8-4.92t-4.08-5.25a1.42,1.42,0,0,1-.26-1.3,1.85,1.85,0,0,1,.72-1,9,9,0,0,0,2.1-1.83,12.51,12.51,0,0,0,1.61-2.47,13.27,13.27,0,0,0,1.06-2.91,13.7,13.7,0,0,0,.36-3.12,13.83,13.83,0,0,0-.95-5.2,12.29,12.29,0,0,0-2.64-4,11.74,11.74,0,0,0-4.07-2.66,14.1,14.1,0,0,0-5.26-1H186.14a.67.67,0,0,0-.5.21.67.67,0,0,0-.21.5V36.18a.67.67,0,0,0,.21.5.69.69,0,0,0,.51.21h7.62a.72.72,0,0,0,.72-.71V27.93a1.7,1.7,0,0,1,.5-1.22A1.73,1.73,0,0,1,196.21,26.2Zm-1.72-15.46A1.72,1.72,0,0,1,196.21,9h5.37a4,4,0,0,1,2.06.51A4.11,4.11,0,0,1,205,10.73a4.91,4.91,0,0,1,.67,1.48,5,5,0,0,1,.2,1.32,4.26,4.26,0,0,1-.41,1.91A4.27,4.27,0,0,1,203,17.6a4.43,4.43,0,0,1-1.44.26h-5.37a1.69,1.69,0,0,1-1.22-.51,1.67,1.67,0,0,1-.5-1.22Z"/><path class="cls-2-logo" d="M223.91,11.5a18.62,18.62,0,0,0,0,14.55,19.6,19.6,0,0,0,4,6,19.1,19.1,0,0,0,5.95,4,18.69,18.69,0,0,0,14.55,0,19.17,19.17,0,0,0,6-4,19,19,0,0,0,4-6,18,18,0,0,0,1.49-7.28,18,18,0,0,0-1.49-7.27,19,19,0,0,0-10-10,18.62,18.62,0,0,0-14.55,0,19.1,19.1,0,0,0-5.95,4A19.6,19.6,0,0,0,223.91,11.5ZM232.23,15a10.06,10.06,0,0,1,2.07-3.22,10.62,10.62,0,0,1,3.07-2.2,9.07,9.07,0,0,1,7.56,0,10.77,10.77,0,0,1,3.1,2.2A9.79,9.79,0,0,1,250.12,15a10.21,10.21,0,0,1,0,7.68,10.23,10.23,0,0,1-5.19,5.43,8.93,8.93,0,0,1-7.56,0,10.19,10.19,0,0,1-3.08-2.22,10.42,10.42,0,0,1-2-3.21,10,10,0,0,1-.76-3.86A10.23,10.23,0,0,1,232.23,15Z"/><path class="cls-2-logo" d="M296.85,19a14.65,14.65,0,0,0,.89-5.14,12.67,12.67,0,0,0-1.05-5.14,14.09,14.09,0,0,0-2.85-4.22,13,13,0,0,0-4.21-2.84,13.22,13.22,0,0,0-5.17-1H268.89a.67.67,0,0,0-.5.21.64.64,0,0,0-.21.5V36.18a.66.66,0,0,0,.2.5.69.69,0,0,0,.5.21h7.65a.67.67,0,0,0,.5-.21.66.66,0,0,0,.2-.5V28.59A1.72,1.72,0,0,1,279,26.87h4.44a18.09,18.09,0,0,0,6.32-1,12.72,12.72,0,0,0,4.47-2.73A11,11,0,0,0,296.85,19ZM287.69,17a3.74,3.74,0,0,1-3.25,1.45H279a1.72,1.72,0,0,1-1.74-1.72v-6a1.72,1.72,0,0,1,.51-1.23A1.77,1.77,0,0,1,279,9h4.81a5,5,0,0,1,2.1.43,4.84,4.84,0,0,1,1.54,1.1,4.59,4.59,0,0,1,.95,1.57,5.1,5.1,0,0,1,.31,1.76A5.19,5.19,0,0,1,287.69,17Z"/><path class="cls-3-logo" d="M52.44,29.62c0-3.75-6.3-13-7.2-14.32a.13.13,0,0,0-.22,0c-.9,1.3-7.2,10.57-7.2,14.32a7.31,7.31,0,1,0,14.62,0Z"/></g></g></svg>