<svg xmlns="http://www.w3.org/2000/svg" width="13" height="11" viewBox="0 0 13 11">
    <g fill="none" fill-rule="evenodd">
        <g fill="#DBDBDB">
            <g>
                <path d="M4.088 11c4.906 0 7.59-4.232 7.59-7.902 0-.121 0-.24-.009-.36.522-.393.973-.88 1.331-1.438-.486.225-1.003.373-1.531.438.556-.348.973-.893 1.172-1.537-.524.324-1.096.552-1.694.674-1.01-1.118-2.7-1.172-3.774-.12-.692.678-.986 1.69-.771 2.654C4.258 3.297 2.259 2.242.905.507.197 1.777.559 3.4 1.73 4.214c-.425-.013-.84-.132-1.211-.347v.035c0 1.322.896 2.46 2.14 2.723-.393.111-.805.128-1.204.047.35 1.132 1.35 1.907 2.491 1.93-.944.772-2.11 1.192-3.312 1.19-.212 0-.424-.013-.635-.04 1.22.815 2.639 1.248 4.088 1.246" transform="translate(-766 -9419) translate(766 9419)"/>
            </g>
        </g>
    </g>
</svg>
