<?xml version="1.0" standalone="no"?>
<!DOCTYPE svg PUBLIC "-//W3C//DTD SVG 20010904//EN"
 "http://www.w3.org/TR/2001/REC-SVG-20010904/DTD/svg10.dtd">
<svg version="1.0" xmlns="http://www.w3.org/2000/svg"
 width="512.000000pt" height="512.000000pt" viewBox="0 0 512.000000 512.000000"
 preserveAspectRatio="xMidYMid meet">

<g transform="translate(0.000000,512.000000) scale(0.100000,-0.100000)"
fill="#000000" stroke="none">
<path d="M2365 5113 c-497 -42 -954 -216 -1353 -515 -122 -92 -341 -304 -441
-429 -289 -358 -478 -791 -546 -1249 -34 -231 -30 -546 11 -785 70 -415 263
-847 523 -1170 93 -117 272 -297 386 -390 204 -166 498 -333 740 -421 508
-183 1069 -202 1583 -53 162 47 255 84 427 169 264 130 452 266 671 485 218
217 353 404 484 670 146 294 221 550 255 875 62 577 -88 1188 -411 1672 -231
346 -550 640 -899 829 -398 216 -821 323 -1255 317 -74 -1 -153 -3 -175 -5z
m115 -638 c0 -373 -3 -475 -12 -475 -66 1 -337 23 -428 35 -210 29 -500 89
-500 105 0 31 160 285 246 391 189 232 474 412 662 418 l32 1 0 -475z m333
443 c276 -94 547 -357 737 -716 18 -34 31 -65 28 -68 -10 -9 -310 -73 -418
-88 -112 -16 -265 -31 -422 -41 l-98 -6 0 477 0 477 55 -7 c31 -3 84 -16 118
-28z m-1027 -161 c-150 -153 -273 -322 -362 -499 -20 -40 -38 -74 -39 -76 -7
-8 -326 112 -399 150 l-27 14 53 45 c227 192 490 341 773 440 44 15 85 28 91
28 6 1 -34 -45 -90 -102z m1563 68 c237 -83 451 -198 659 -355 64 -48 125 -96
135 -107 17 -19 16 -20 -10 -33 -110 -51 -390 -156 -397 -149 -2 2 -20 37 -40
77 -89 177 -212 346 -362 499 -56 57 -98 103 -94 103 5 0 54 -16 109 -35z
m-2449 -631 c79 -37 285 -119 353 -140 69 -21 69 -1 -3 -208 -118 -340 -185
-690 -206 -1078 l-6 -128 -440 0 -439 0 5 53 c3 28 8 84 12 122 34 392 203
826 453 1167 74 100 192 236 206 237 6 1 35 -11 65 -25z m3436 -24 c223 -239
418 -582 518 -912 54 -179 82 -331 101 -550 l6 -68 -440 0 -439 0 -6 128 c-21
388 -88 738 -206 1078 -72 207 -72 187 -3 208 68 21 274 103 353 140 30 14 58
26 62 26 4 0 28 -23 54 -50z m-2674 -229 c218 -50 407 -75 731 -97 l87 -6 0
-599 0 -599 -641 0 -641 0 6 128 c22 391 90 739 217 1097 l42 117 31 -5 c17
-2 93 -18 168 -36z m2037 -77 c126 -354 196 -710 217 -1096 l6 -128 -641 0
-641 0 0 599 0 599 88 6 c318 22 507 46 730 96 75 17 138 33 141 35 2 3 17 5
32 5 25 0 29 -6 68 -116z m-2655 -1511 c21 -389 88 -739 206 -1079 73 -209 74
-186 -12 -213 -66 -22 -225 -85 -354 -141 l-51 -23 -48 52 c-224 240 -419 583
-519 913 -54 179 -82 331 -101 551 l-6 67 440 0 439 0 6 -127z m1436 -473 c0
-565 -1 -600 -17 -600 -226 -2 -673 -63 -890 -121 -113 -30 -105 -35 -152 97
-126 356 -196 706 -217 1097 l-7 127 642 0 641 0 0 -600z m1436 473 c-21 -387
-91 -743 -217 -1097 -47 -132 -39 -127 -152 -97 -106 29 -314 67 -457 85 -105
14 -370 35 -432 36 -17 0 -18 35 -18 600 l0 600 641 0 641 0 -6 -127z m1038
55 c-26 -338 -105 -628 -248 -913 -109 -217 -232 -398 -371 -546 l-48 -52 -51
23 c-129 56 -288 119 -354 141 -86 27 -85 4 -12 213 118 340 185 690 206 1079
l6 127 439 0 439 0 -6 -72z m-2474 -1763 l0 -475 -27 0 c-16 1 -53 7 -83 14
-245 60 -496 259 -688 546 -52 79 -142 237 -142 250 0 17 323 83 535 110 81
10 271 25 368 29 l37 1 0 -475z m335 465 c198 -13 458 -50 629 -90 71 -16 131
-32 134 -35 6 -6 -46 -105 -102 -195 -155 -250 -374 -461 -572 -551 -72 -33
-196 -69 -236 -69 l-28 0 0 475 c0 261 3 475 8 475 4 0 79 -5 167 -10z m-1404
-222 c78 -168 222 -370 375 -525 56 -57 98 -103 94 -103 -3 0 -44 13 -91 29
-279 94 -556 251 -777 439 -38 33 -49 48 -40 54 35 22 377 156 404 157 6 1 21
-22 35 -51z m2445 13 c117 -42 233 -89 278 -113 l27 -14 -53 -46 c-155 -131
-318 -236 -521 -333 -112 -54 -321 -135 -347 -135 -4 0 38 46 94 103 153 155
297 357 375 525 14 29 27 52 31 52 4 0 56 -18 116 -39z"/>
</g>
</svg>
